# xmcd
#
# Track frame offsets: 
#        150
#        10414
#        28702
#        50460
#        66462
#        85899
#        106220
#        120807
#        135280
#        156747
#
# Disc length: 2409 seconds
#
# Revision: 17
# Processed by: cddbd v1.5.2PL0 Copyright (c) Steve Scherf et al.
# Submitted via: ExactAudioCopyFreeDBPlugin 1.0
#
DISCID=7e09670a
DTITLE=Vince Gill - These Days [disc 4] Little Brother
DYEAR=2006
DGENRE=Country
TTITLE0=All Prayed Up
TTITLE1=Cold Gray Light of Gone
TTITLE2=A River Like You
TTITLE3=Ace up Your Pretty Sleeve
TTITLE4=Molly Brown
TTITLE5=Girl
TTITLE6=Give Me the Highway
TTITLE7=Sweet Augusta Darlin'
TTITLE8=Little Brother
TTITLE9=Almost Home
EXTD=
EXTT0=
EXTT1=
EXTT2=
EXTT3=
EXTT4=
EXTT5=
EXTT6=
EXTT7=
EXTT8=
EXTT9=
PLAYORDER=
